HIERARCHY
ROOT Hips
{
	OFFSET 0.000000 0.000000 0.000000
	CHANNELS 6 Xposition Yposition Zposition Zrotation Yrotation Xrotation 
	JOINT LHipJoint
	{
		OFFSET 0.000000 0.000000 0.000000
		CHANNELS 3 Zrotation Yrotation Xrotation
		JOINT LeftUpLeg
		{
			OFFSET 1.363060 -1.794630 0.839290
			CHANNELS 3 Zrotation Yrotation Xrotation
			JOINT LeftLeg
			{
				OFFSET 2.448110 -6.726130 0.000000
				CHANNELS 3 Zrotation Yrotation Xrotation
				JOINT LeftFoot
				{
					OFFSET 2.562200 -7.039590 0.000000
					CHANNELS 3 Zrotation Yrotation Xrotation
					JOINT LeftToeBase
					{
						OFFSET 0.157640 -0.433110 2.322550
						CHANNELS 3 Zrotation Yrotation Xrotation
						End Site
						{
							OFFSET 0.000000 0.000000 0.000000
						}
					}
				}
			}
		}
	}
	JOINT RHipJoint
	{
		OFFSET 0.000000 0.000000 0.000000
		CHANNELS 3 Zrotation Yrotation Xrotation
		JOINT RightUpLeg
		{
			OFFSET -1.305520 -1.794630 0.839290
			CHANNELS 3 Zrotation Yrotation Xrotation
			JOINT RightLeg
			{
				OFFSET -2.542530 -6.985550 0.000000
				CHANNELS 3 Zrotation Yrotation Xrotation
				JOINT RightFoot
				{
					OFFSET -2.568260 -7.056230 0.000000
					CHANNELS 3 Zrotation Yrotation Xrotation
					JOINT RightToeBase
					{
						OFFSET -0.164730 -0.452590 2.363150
						CHANNELS 3 Zrotation Yrotation Xrotation
						End Site
						{
							OFFSET 0.000000 0.000000 0.000000
						}
					}
				}
			}
		}
	}
	JOINT LowerBack
	{
		OFFSET 0.000000 0.000000 0.000000
		CHANNELS 3 Zrotation Yrotation Xrotation
		JOINT Spine
		{
			OFFSET 0.028270 2.035590 -0.193380
			CHANNELS 3 Zrotation Yrotation Xrotation
			JOINT Spine1
			{
				OFFSET 0.056720 2.048850 -0.042750
				CHANNELS 3 Zrotation Yrotation Xrotation
				JOINT Neck
				{
					OFFSET 0.000000 0.000000 0.000000
					CHANNELS 3 Zrotation Yrotation Xrotation
					JOINT Neck1
					{
						OFFSET -0.054170 1.746240 0.172020
						CHANNELS 3 Zrotation Yrotation Xrotation
						JOINT Head
						{
							OFFSET 0.104070 1.761360 -0.123970
							CHANNELS 3 Zrotation Yrotation Xrotation
							End Site
							{
								OFFSET 0.000000 0.000000 0.000000
							}
						}
					}
				}
				JOINT LeftShoulder
				{
					OFFSET 0.000000 0.000000 0.000000
					CHANNELS 3 Zrotation Yrotation Xrotation
					JOINT LeftArm
					{
						OFFSET 3.362410 1.200890 -0.311210
						CHANNELS 3 Zrotation Yrotation Xrotation
						JOINT LeftForeArm
						{
							OFFSET 4.983000 -0.000000 -0.000000
							CHANNELS 3 Zrotation Yrotation Xrotation
							JOINT LeftHand
							{
								OFFSET 3.483560 -0.000000 -0.000000
								CHANNELS 3 Zrotation Yrotation Xrotation
								JOINT LeftFingerBase
								{
									OFFSET 0.000000 0.000000 0.000000
									CHANNELS 3 Zrotation Yrotation Xrotation
									JOINT LeftHandIndex1
									{
										OFFSET 0.715260 -0.000000 -0.000000
										CHANNELS 3 Zrotation Yrotation Xrotation
										End Site
										{
											OFFSET 0.000000 0.000000 0.000000
										}
									}
								}
								JOINT LThumb
								{
									OFFSET 0.000000 0.000000 0.000000
									CHANNELS 3 Zrotation Yrotation Xrotation
									End Site
									{
										OFFSET 0.000000 0.000000 0.000000
									}
								}
							}
						}
					}
				}
				JOINT RightShoulder
				{
					OFFSET 0.000000 0.000000 0.000000
					CHANNELS 3 Zrotation Yrotation Xrotation
					JOINT RightArm
					{
						OFFSET -3.136600 1.374050 -0.404650
						CHANNELS 3 Zrotation Yrotation Xrotation
						JOINT RightForeArm
						{
							OFFSET -5.241900 -0.000000 -0.000000
							CHANNELS 3 Zrotation Yrotation Xrotation
							JOINT RightHand
							{
								OFFSET -3.444170 -0.000000 -0.000000
								CHANNELS 3 Zrotation Yrotation Xrotation
								JOINT RightFingerBase
								{
									OFFSET 0.000000 0.000000 0.000000
									CHANNELS 3 Zrotation Yrotation Xrotation
									JOINT RightHandIndex1
									{
										OFFSET -0.622530 -0.000000 -0.000000
										CHANNELS 3 Zrotation Yrotation Xrotation
										End Site
										{
											OFFSET 0.000000 0.000000 0.000000
										}
									}
								}
								JOINT RThumb
								{
									OFFSET 0.000000 0.000000 0.000000
									CHANNELS 3 Zrotation Yrotation Xrotation
									End Site
									{
										OFFSET 0.000000 0.000000 0.000000
									}
								}
							}
						}
					}
				}
			}
		}
	}
}
MOTION
Frames: 5
Frame Time: 0.008333
9.535785 17.203797 -0.948790 -2.780173 -8.735079 12.800079 2.189217 -2.688778 -5.468581 -11.809245 -0.883766 -46.479141 0.182409 14.894392 32.982386 -0.088846 7.398942 22.022741 0.110400 -2.142700 -5.900200 -0.389949 -3.269424 4.674661 16.443751 -0.305257 11.058698 0.753643 -5.919632 20.152825 1.023969 -10.452635 25.998739 -1.956700 8.775300 -25.095100 -1.909971 7.439578 -4.807413 0.258058 8.948846 -5.000692 6.294121 5.438052 6.652997 -12.168738 -7.354329 -16.362423 5.777710 -6.958956 4.678838 6.110100 -3.420700 9.123800 -1.238543 -5.248637 -1.081164 -74.461682 34.736028 -22.536227 -0.282886 -5.810167 -0.049132 0.432908 2.475571 45.311648 12.973382 -25.419661 -6.740100 -7.125000 0.000000 0.000000 -9.370000 2.198100 9.128000 -0.171086 8.668108 1.911851 57.466961 28.374736 54.027724 -29.726846 31.498978 -11.407525 3.038697 1.636891 -22.221776 -31.448019 -15.157149 10.236700 7.125000 0.000000 0.000000 -7.090400 -47.962500 0.520700
9.553610 17.214515 -0.802008 -2.470610 -8.716550 12.678526 2.140778 -2.659878 -5.356303 -12.231710 -0.947876 -46.302234 0.301021 15.025895 33.576261 -0.077415 7.011840 21.320427 0.101456 -2.052271 -5.650200 -0.381406 -3.213533 4.570293 16.077730 -0.588074 10.169747 0.242752 -6.692499 22.283649 1.162298 -11.323532 26.467487 -1.894671 8.641984 -24.682495 -2.167955 7.418362 -4.613443 0.228582 8.953187 -5.014311 6.255001 5.432613 6.442941 -12.274813 -7.372247 -16.143270 5.865296 -6.960174 4.528517 6.222600 -3.411181 9.012241 -1.294196 -5.285246 -1.052376 -74.422377 34.480205 -22.888143 -0.285890 -5.732834 -0.058100 0.487311 2.446154 45.629269 12.591854 -25.371154 -6.527077 -7.125000 0.000000 0.000000 -9.622667 2.290046 9.364925 -0.199081 8.705223 1.917179 57.778653 28.130439 53.914270 -29.503320 31.358272 -11.288067 3.044418 1.688361 -22.026143 -31.198294 -15.636869 10.489472 7.125000 0.000000 0.000000 -6.847984 -48.542207 0.597740
9.571339 17.225995 -0.655291 -2.122344 -8.703240 12.553294 2.088484 -2.629997 -5.241420 -12.694561 -1.016944 -46.121091 0.416235 15.154549 34.166224 -0.068078 6.627601 20.597270 0.093599 -1.972897 -5.430761 -0.374614 -3.160496 4.465250 15.667822 -0.875496 9.268920 -0.276748 -7.463010 24.422434 1.301075 -12.190003 26.920328 -1.835831 8.515392 -24.290786 -2.473980 7.390596 -4.422160 0.198654 8.951411 -5.027314 6.231224 5.422021 6.237377 -12.376068 -7.385949 -15.939868 5.942594 -6.955407 4.385861 6.323046 -3.400093 8.906997 -1.346517 -5.323679 -1.025051 -74.404262 34.220757 -23.260269 -0.288055 -5.656784 -0.068065 0.540556 2.411628 45.930613 12.175982 -25.281071 -6.287856 -7.125000 0.000000 0.000000 -9.895388 2.431326 9.612067 -0.225725 8.741644 1.920910 58.088794 27.889477 53.811426 -29.289845 31.223887 -11.174416 3.049172 1.741646 -21.839858 -30.947870 -16.124030 10.746276 7.125000 0.000000 0.000000 -6.602907 -49.131487 0.674687
9.588075 17.245367 -0.509253 -1.372980 -8.744023 12.389940 1.996247 -2.589935 -5.099536 -13.575956 -1.137383 -45.896052 0.496222 15.253689 34.715650 -0.080455 6.273028 19.658097 0.096999 -2.008096 -5.528041 -0.385973 -3.137047 4.353200 14.803089 -1.210647 8.245005 -0.885474 -8.209098 26.643724 1.444492 -13.010589 27.208316 -1.810046 8.458489 -24.115629 -3.277877 7.294945 -4.258730 0.164044 8.886238 -5.033936 6.366454 5.358015 6.078376 -12.427362 -7.355962 -15.899711 5.913266 -6.888607 4.322645 6.298569 -3.372739 8.867196 -1.364296 -5.381022 -1.012880 -74.605749 33.923750 -23.841848 -0.281516 -5.594025 -0.088377 0.581803 2.324156 46.063262 11.404184 -24.760104 -5.777135 -7.125000 0.000000 0.000000 -10.375932 3.083888 9.965100 -0.238363 8.770875 1.908089 58.382858 27.683070 53.818539 -29.180532 31.155002 -11.120933 3.043906 1.813732 -21.750445 -30.690202 -16.688306 11.044864 7.125000 0.000000 0.000000 -6.330261 -49.819981 0.750681
9.604387 17.263105 -0.361924 -0.717424 -8.827478 12.183896 1.905263 -2.548623 -4.958975 -14.362533 -1.184559 -45.615219 0.580003 15.338840 35.238320 -0.091280 5.938382 18.766348 0.101199 -2.050880 -5.646300 -0.405106 -3.108109 4.234138 14.050874 -1.474222 7.299555 -1.495685 -8.949649 28.874382 1.590152 -13.799365 27.419735 -1.821358 8.480196 -24.184479 -3.975687 7.225092 -4.057492 0.133913 8.845980 -5.036899 6.485020 5.306506 5.934886 -12.450298 -7.317071 -15.891249 5.859035 -6.815823 4.280613 6.248833 -3.345128 8.843725 -1.371348 -5.440654 -1.001920 -74.830869 33.622798 -24.433136 -0.271192 -5.537016 -0.104814 0.613476 2.262388 46.189211 10.912636 -24.388367 -5.440323 -7.125000 0.000000 0.000000 -10.683246 3.540531 10.183667 -0.242922 8.795407 1.892112 58.676114 27.466919 53.844876 -29.064811 31.081389 -11.059147 3.034881 1.879111 -21.659060 -30.399029 -17.192279 11.286749 7.125000 0.000000 0.000000 -6.018382 -50.428364 0.806838
